<svg width="239" height="260" viewBox="0 0 239 260" fill="none" xmlns="http://www.w3.org/2000/svg">
<path fill-rule="evenodd" clip-rule="evenodd" d="M138.219 18.2902C141.666 30.9923 146.158 59.5438 141.574 64.0225H112.574C112.571 63.971 112.568 63.9197 112.565 63.8685C101.817 62.679 93.4568 53.5658 93.4568 42.5V21.5C93.4568 9.62588 103.083 0 114.957 0H116.957C127.74 0 136.669 7.93854 138.219 18.2902Z" fill="#191847"/>
<path fill-rule="evenodd" clip-rule="evenodd" d="M104.719 38.4901C100.111 33.0814 96.9924 26.4529 97.5136 19.0255C99.0151 -2.37502 128.805 2.33281 134.6 13.1339C140.395 23.9351 139.706 51.333 132.217 53.2635C129.23 54.0333 122.868 52.1475 116.392 48.2443L120.457 77H96.4568L104.719 38.4901Z" fill="#F3DBC4"/>
<path fill-rule="evenodd" clip-rule="evenodd" d="M111.207 34.8748C112.313 46.7528 111.87 60.3173 108.574 63.5371H79.5741C77.9583 35.4635 93.5741 46.3349 93.5741 19.9028C94.5476 18.9515 95.4676 18.01 96.3779 17.1981L96.3457 16.4207C101.367 6.14023 107.738 1 115.458 1C127.038 1 130.693 6.38832 133.805 10.9631C131.478 18.9482 122.447 20.1322 114.423 25.1095C113.477 24.341 112.271 23.8804 110.957 23.8804C107.919 23.8804 105.457 26.3428 105.457 29.3804C105.457 32.418 107.919 34.8804 110.957 34.8804C111.041 34.8804 111.124 34.8785 111.207 34.8748Z" fill="#191847"/>
<path fill-rule="evenodd" clip-rule="evenodd" d="M77.4569 160C100.004 153.549 121.337 153.549 141.457 160C148.457 191.938 165.466 204.614 168.457 253.579C134.457 270.473 92.4569 241.531 57.4569 258.005C47.4569 234.961 61.4569 179.465 77.4569 160Z" fill="#2B44FF"/>
<path fill-rule="evenodd" clip-rule="evenodd" d="M174.457 120.311L213.94 114.925C221.838 110.532 229.104 107.558 235.738 106.003C237.604 105.948 240.574 106.627 236.15 110.315C231.726 114.003 227.237 118.083 228.025 120.051C228.814 122.02 232.928 121.287 233.61 124.315C234.064 126.333 227.387 126.661 213.578 125.299L181.541 138L174.457 120.311ZM50.4267 129.45L72.3241 129.532C48.313 183.566 35.7932 211.857 34.7648 214.406C32.4509 220.14 37.3475 228.874 39.4415 233.567C32.6214 236.619 33.3481 225.317 24.7448 229.319C16.8921 232.973 10.9186 239.592 1.84591 233.994C0.730476 233.306 -0.491853 230.715 2.46145 228.69C9.8192 223.645 20.4222 214.815 21.8548 211.908C23.8084 207.945 33.3324 180.459 50.4267 129.45Z" fill="#F3DBC4"/>
<path fill-rule="evenodd" clip-rule="evenodd" d="M110.406 59.9996L127.551 61.1418C131.774 99.343 154.773 123.472 206.268 115.304L213.109 164.498C164.98 170.718 122.77 151.449 114.119 99.2781C111.88 85.7726 110.112 71.7175 110.406 59.9996Z" fill="#AFB9C5"/>
<path fill-rule="evenodd" clip-rule="evenodd" d="M101.948 55.0159L127.924 60.9653C127.924 105.644 142.157 134.15 149.457 167H79.3004C78.3121 178.351 77.7053 190.018 77.389 202H24.8584C36.7621 138.664 61.8869 89.664 100.233 55H101.934L101.948 55.0159Z" fill="#C5CFD6"/>
<path fill-rule="evenodd" clip-rule="evenodd" d="M90.3693 103.26C88.5613 131.101 89.6247 152.348 93.5593 167.001H79.3005C81.2583 144.514 84.7128 123.267 90.3693 103.26Z" fill="black" fill-opacity="0.1"/>
</svg>
