<svg width="237" height="271" viewBox="0 0 237 271" fill="none" xmlns="http://www.w3.org/2000/svg">
<path fill-rule="evenodd" clip-rule="evenodd" d="M116.775 34.635C112.203 29.4985 109.109 23.2036 109.626 16.1501C111.116 -4.17329 140.672 0.297584 146.422 10.5551C152.171 20.8125 151.488 46.8315 144.057 48.6648C141.094 49.3959 134.781 47.605 128.356 43.8983L132.389 71.2066H108.577L116.775 34.635Z" fill="#F3DBC4"/>
<path fill-rule="evenodd" clip-rule="evenodd" d="M129.547 18.3942C130.459 30.5472 132.87 36.6238 136.78 36.6238C142.647 36.6238 147.624 33.059 150.198 33.059C152.074 33.059 151.656 35.3066 150.412 36.973C149.386 38.3479 144.388 39.6731 144.388 41.8046C144.388 43.936 148.337 42.287 148.337 43.5512C148.337 45.6422 149.03 49.5737 145.239 49.5737C141.402 49.5737 130.4 48.2352 128.514 42.784C127.298 39.266 126.511 31.976 126.154 20.9139C125.921 20.8874 125.684 20.8738 125.444 20.8738C122.156 20.8738 119.491 23.4249 119.491 26.5718C119.491 28.1694 120.178 29.6134 121.285 30.648C119.907 32.509 118.363 34.453 116.595 36.459C109.949 32.6427 105.018 21.4711 111.515 10.7392C113.311 5.48182 117.376 2.67365 122.177 1.36972C126.067 -0.187531 130.104 -0.363114 133.512 0.570446C140.194 1.11897 146.159 3.06897 147.85 4.22703C147.85 10.2814 146.625 12.0777 136.156 11.9193C133.584 13.2196 131.607 15.4587 129.547 18.3942Z" fill="#191847"/>
<path fill-rule="evenodd" clip-rule="evenodd" d="M100.64 150.031L136.611 270.855L157.5 267L154.108 150.031H100.64Z" fill="#191847"/>
<path fill-rule="evenodd" clip-rule="evenodd" d="M91.0207 150.031C90.1887 212.305 87.3517 246.271 86.4781 251.929C85.6045 257.586 112.022 199.672 86.4779 266H107.5C140.019 202.369 117.354 260.284 121.141 251.929C124.928 243.573 136.614 209.607 154.217 150.031H91.0207Z" fill="#2F3676"/>
<path fill-rule="evenodd" clip-rule="evenodd" d="M184.337 134.462L214.287 158.766C222.688 161.55 229.641 164.781 235.146 168.457C236.416 169.731 237.881 172.238 232.283 171.447C226.686 170.656 220.76 170.065 219.85 171.851C218.939 173.636 222.184 176.061 220.433 178.436C219.266 180.018 214.624 175.543 206.509 165.01L176.152 150.508L184.337 134.462ZM48.7179 123.945L66.2908 126.388C47.4279 165.561 37.3152 186.279 35.9529 188.539C32.8876 193.627 36.4926 202.487 37.9019 207.178C30.7798 209.146 33.0543 198.614 24.0489 201.241C15.8292 203.638 9.04614 209.074 0.905245 202.61C-0.0956296 201.816 -0.938744 199.217 2.2425 197.703C10.1681 193.931 21.8048 187.029 23.6137 184.485C26.0804 181.016 34.4485 160.836 48.7179 123.945Z" fill="#F3DBC4"/>
<path fill-rule="evenodd" clip-rule="evenodd" d="M122.165 55.3762L133.054 51.9295C147.825 87.2479 169.853 121.42 206.659 150.284L197.557 165.314C165.211 147.076 134.59 132.908 122.165 105.54C117.995 96.355 121.825 66.3591 122.165 55.3762Z" fill="#C5CFD6"/>
<path fill-rule="evenodd" clip-rule="evenodd" d="M84.7656 154.774C115.957 157.94 140.509 157.94 158.42 154.774C160.639 154.382 160.989 150.826 159.96 148.412C143.934 110.828 132.945 78.0332 132.945 51.9277C130.005 53.3467 124.858 53.5593 117.507 52.5657C97.7492 79.4681 88.6673 110.336 84.7656 154.774Z" fill="#323337"/>
<path fill-rule="evenodd" clip-rule="evenodd" d="M112.595 50.3109H120.829C122.746 61.1038 128.793 207.256 147.461 255.065H46.454C48.6438 211.268 65.9177 158.656 83.4163 114.63C67.9433 128.183 54.4572 151.148 42.9582 183.523L24.0386 178.875C38.106 120.853 67.0285 78.2073 110.806 50.9368C110.901 50.7272 110.995 50.5186 111.089 50.3109H111.818C112.086 50.1462 112.355 49.982 112.624 49.8184L112.595 50.3109Z" fill="#DDE3E9"/>
</svg>
