<svg width="302" height="323" viewBox="0 0 302 323" fill="none" xmlns="http://www.w3.org/2000/svg">
    <path fill-rule="evenodd" clip-rule="evenodd" d="M201.456 52.2201C195.25 46.527 201.821 49.7387 201.456 48.6896C200.985 47.3372 200.816 46.6052 200.032 45.456C198.554 43.2924 203.413 45.6039 201.456 43.9823C197.882 41.0203 201.166 40.7855 196.692 41.3403C194.433 41.6205 191.152 41.3989 189.286 42.856C187.6 44.1726 185.978 45.3168 183.794 45.456C181.418 45.6074 180.536 48.7402 179.871 49.5247C179.871 48.3479 176.733 60.9007 174.772 60.9007C173.202 63.6897 174.532 67.529 171.633 71.0353C168.549 74.7666 167.318 75.0233 167.318 78.1608C167.695 79.0798 164.27 81.8337 164.965 82.4758C159.897 86.3986 162.219 87.5754 160.65 87.5754C159.081 89.1445 153.197 96.8209 151.627 93.0665C152.376 101.305 157.379 94.0156 157.512 95.4209C158.296 95.0279 158.296 94.6363 158.688 95.0286C160.111 94.7932 158.634 94.2276 160.65 94.6356C161.996 94.908 162.027 93.9541 163.396 93.8518C164.075 93.8011 165.091 92.4344 165.75 92.282C166.142 95.8124 170.732 90.7129 170.457 92.282C169.423 98.1668 175.51 91.7438 178.423 91.4974C185.756 92.282 185.946 76.1489 190.389 76.1489C192.616 74.2482 192.774 75.3778 192.25 72.5776C192.805 72.8572 192.165 71.7355 191.247 70.6211C190.884 70.1797 192.372 71.2949 191.906 71.0353C191.363 70.7331 190.811 70.3425 190.389 69.8494C188.686 67.8586 190.406 63.8072 192.547 63.1395C195.728 62.1476 194.421 65.2103 196.692 66.3925C197.998 67.0723 198.115 66.5567 199.093 65.608C200.403 64.3371 199.116 60.0306 199.887 58.3172C200.522 56.9062 200.809 56.7622 201.456 55.3583C194.135 51.3588 201.197 52.9614 200.671 52.2201C202.95 51.7585 198.069 49.4174 200.032 50.6789C200.843 51.2004 201.023 50.2744 201.456 51.1951C201.203 51.1711 201.549 51.3924 201.456 51.1951C201.928 51.2399 196.437 49.2729 201.456 52.2201Z" fill="#191847"/>
    <path fill-rule="evenodd" clip-rule="evenodd" d="M168.133 58.6357C164.962 52.5349 163.46 45.6072 165.564 38.7165C171.627 18.8623 198.696 29.7698 201.815 41.2132C204.934 52.6566 198.336 78.3427 190.855 78.537C187.871 78.6145 182.281 75.4547 177.022 70.3681L174.612 98.3666L151.98 93.1556L168.133 58.6357Z" fill="#F3DBC4"/>
    <path fill-rule="evenodd" clip-rule="evenodd" d="M221 294.5C215.075 264.977 217.123 299.407 216.444 286.314C215.282 263.896 214.976 244.334 215.413 237.156C216.455 220.038 240.61 224.589 241.888 233.51C243.821 247.011 246.012 230.654 241.888 294.5L221 294.5ZM105.601 238.037C117.695 236.208 159.673 231.433 179.289 231.865C184.926 231.989 190.379 232.154 195.498 232.347C210.711 232.921 212.208 260.949 197.707 259.737C161.596 256.72 110.847 250.505 106.473 250.111C100.341 249.56 98.0002 239.187 105.601 238.037Z" fill="#F3DBC4"/>
    <path fill-rule="evenodd" clip-rule="evenodd" d="M206.108 227.174L153.175 182.844L154.705 176.199L161.836 177.841C216.442 205.98 243.903 222.278 244.221 226.736C244.224 226.784 244.226 226.832 244.227 226.88C244.248 226.925 244.268 226.97 244.287 227.015C252.143 245.473 243.292 284.7 244.221 291L217 291C215.768 257.811 196.217 267.596 205.551 230.335C205.61 229.193 205.801 228.141 206.108 227.174Z" fill="#1F28CF"/>
    <path fill-rule="evenodd" clip-rule="evenodd" d="M146.954 232.64C141.721 230.279 136.894 228.135 132.746 226.381C105.949 215.054 101.248 198.231 113.572 166.725L165.023 178.572C172.871 182.921 212.332 211.295 232.751 226.256C246.265 236.157 236.185 258.313 226.298 262.407C226.166 262.767 225.956 262.984 225.657 263.034C175.606 271.451 141.747 253.192 128.942 253.587L127.413 234.682L146.954 232.64Z" fill="#2B44FF"/>
    <path fill-rule="evenodd" clip-rule="evenodd" d="M110.036 236.108C106.976 235.705 104.748 235.665 103.35 235.989C101.65 236.382 99.2349 237.24 96.1046 238.561C96.5611 240.533 100.664 258.257 108.413 291.732C113.301 292.057 115.582 290.688 115.257 287.627C114.932 284.566 114.689 282.016 114.526 279.979L119.823 252.716C119.925 252.191 119.582 251.683 119.058 251.581C119.049 251.579 119.04 251.578 119.031 251.576L114.81 250.88C112.886 248.422 111.724 246.331 111.326 244.608C111.002 243.208 111.119 241.144 111.679 238.415C111.894 237.368 111.219 236.346 110.172 236.131C110.127 236.121 110.082 236.114 110.036 236.108Z" fill="#E4E4E4"/>
    <path fill-rule="evenodd" clip-rule="evenodd" d="M219.114 163.837L256.738 156.699C264.097 152.113 270.92 148.91 277.209 147.092C278.998 146.945 281.882 147.44 277.822 151.178C273.762 154.916 269.66 159.031 270.516 160.866C271.372 162.7 275.284 161.794 276.091 164.643C276.629 166.542 270.236 167.194 256.914 166.599L226.806 180.326L219.114 163.837ZM80.0246 136.164L98.465 144.447C70.6936 176.188 55.8526 192.982 53.9422 194.83C49.6437 198.989 50.5408 208.631 50.5478 213.601C43.3201 213.619 48.4029 203.916 39.2252 204.073C30.8483 204.217 22.9671 207.72 17.1465 199.208C16.4309 198.161 16.3686 195.391 19.7748 194.762C28.2611 193.194 41.103 189.557 43.5113 187.551C46.7955 184.816 58.9665 167.687 80.0246 136.164Z" fill="#F3DBC4"/>
    <path fill-rule="evenodd" clip-rule="evenodd" d="M168.513 80.4072L176.989 80.8861C190.783 102.204 188.5 145.263 199.075 153.467C209.072 161.224 226.09 159.864 246.504 157.437L249.308 171.668C227.908 186.259 187.803 193.514 175.067 181.168C154.705 161.429 160.999 109.123 168.513 80.4072Z" fill="#DB2721"/>
    <path fill-rule="evenodd" clip-rule="evenodd" d="M109.374 174.697C142.068 182.225 166.118 187.762 181.522 191.309C184.819 192.068 185.294 187.165 185.37 184.653C186.253 155.662 171.664 120.833 180.75 81.3692L160.691 73.314C137.103 97.0349 123.302 129.749 109.374 174.697Z" fill="#323337"/>
    <path fill-rule="evenodd" clip-rule="evenodd" d="M108.641 144.967C87.8239 168.111 71.0631 184.365 58.3582 193.729L43.9173 187.285C67.5694 129.113 106.046 91.019 159.348 73.002L163.105 73.8668L167.588 74.8993C171.607 142.887 166.987 186.507 153.728 205.759L88.7834 190.805C93.3796 175.542 100.448 159.91 108.641 144.967Z" fill="#FF4133"/>
    <path fill-rule="evenodd" clip-rule="evenodd" d="M202.572 42.9558C202.386 41.8469 201.933 40.6155 201.568 39.5664C201.097 38.214 200.384 36.9946 199.599 35.8454C198.122 33.6818 196.35 31.728 194.393 30.1064C190.819 27.1443 186.269 25.4358 181.795 25.9907C179.536 26.2708 176.256 26.0493 174.389 27.5064C172.703 28.8229 171.081 29.9671 168.897 30.1064C166.522 30.2578 165.639 33.3905 164.975 34.1751C164.975 32.9982 161.836 45.551 159.875 45.551C158.306 48.3401 159.636 52.1793 156.737 55.6857C153.652 59.4169 152.422 59.6737 152.422 62.8111C152.798 63.7302 149.373 66.484 150.068 67.1262C145 71.0489 147.322 72.2257 145.753 72.2257C144.184 73.7948 139.084 85.1708 141.438 81.6403C143.399 83.994 144.969 80.4635 144.576 81.6403C146.93 81.2481 146.145 82.0326 146.538 82.4249C147.96 82.1895 147.715 81.4816 148.499 81.6403C149.846 81.9128 149.389 80.9065 150.068 80.8558C150.747 80.805 149.41 82.9696 150.068 82.8172C150.46 86.3476 155.443 80.0712 155.168 81.6403C154.134 87.5252 161.277 78.7485 164.19 78.5021C171.523 79.2867 170.466 64.5497 175.694 64.5497C177.921 62.6491 177.877 60.0282 177.353 57.2279C177.908 57.5075 177.268 56.3858 176.35 55.2714C175.987 54.83 177.476 55.9453 177.009 55.6857C176.466 55.3834 175.914 54.9928 175.492 54.4997C173.789 52.509 175.509 48.4575 177.65 47.7899C180.831 46.798 177.65 52.5255 180.665 55.2714C175.492 107.836 181.011 55.2843 183.411 54.4997C184.722 53.2288 188.525 48.4412 189.296 46.7279C189.931 45.3169 191.664 43.843 192.312 42.439C192.614 41.7834 193.66 39.9299 193.135 39.1886C195.413 38.727 197.951 39.689 199.913 40.9504C200.724 41.4719 201.342 42.0469 201.775 42.9675C201.868 43.1648 202.07 43.7512 202.323 43.7752C202.794 43.82 202.618 43.2344 202.572 42.9558Z" fill="#191847"/>
</svg>
