<svg width="302" height="323" viewBox="0 0 302 323" fill="none" xmlns="http://www.w3.org/2000/svg">
<path fill-rule="evenodd" clip-rule="evenodd" d="M168.133 58.6357C164.962 52.5349 163.46 45.6072 165.564 38.7165C171.627 18.8623 198.696 29.7698 201.815 41.2132C204.934 52.6566 198.336 78.3427 190.855 78.537C187.871 78.6145 182.281 75.4547 177.022 70.3681L174.612 98.3666L151.98 93.1556L168.133 58.6357Z" fill="#F3DBC4"/>
<path fill-rule="evenodd" clip-rule="evenodd" d="M221 294.5C215.075 264.977 217.123 299.407 216.444 286.314C215.282 263.896 214.976 244.334 215.413 237.156C216.455 220.038 240.61 224.589 241.888 233.51C243.821 247.011 246.012 230.654 241.888 294.5L221 294.5ZM105.601 238.037C117.695 236.208 159.673 231.433 179.289 231.865C184.926 231.989 190.379 232.154 195.498 232.347C210.711 232.921 212.208 260.949 197.707 259.737C161.596 256.72 110.847 250.505 106.473 250.111C100.341 249.56 98.0002 239.187 105.601 238.037Z" fill="#F3DBC4"/>
<path fill-rule="evenodd" clip-rule="evenodd" d="M206.108 227.174L153.175 182.844L154.705 176.199L161.836 177.841C216.442 205.98 243.903 222.278 244.221 226.736C244.224 226.784 244.226 226.832 244.227 226.88C244.248 226.925 244.268 226.97 244.287 227.015C252.143 245.473 243.292 284.7 244.221 291L217 291C215.768 257.811 196.217 267.596 205.551 230.335C205.61 229.193 205.801 228.141 206.108 227.174Z" fill="#1F28CF"/>
<path fill-rule="evenodd" clip-rule="evenodd" d="M146.954 232.64C141.721 230.279 136.894 228.135 132.746 226.381C105.949 215.054 101.248 198.231 113.572 166.725L165.023 178.572C172.871 182.921 212.332 211.295 232.751 226.256C246.265 236.157 236.185 258.313 226.298 262.407C226.166 262.767 225.956 262.984 225.657 263.034C175.606 271.451 141.747 253.192 128.942 253.587L127.413 234.682L146.954 232.64Z" fill="#2B44FF"/>
<path fill-rule="evenodd" clip-rule="evenodd" d="M110.036 236.108C106.976 235.705 104.748 235.665 103.35 235.989C101.65 236.382 99.2349 237.24 96.1046 238.561C96.5611 240.533 100.664 258.257 108.413 291.732C113.301 292.057 115.582 290.688 115.257 287.627C114.932 284.566 114.689 282.016 114.526 279.979L119.823 252.716C119.925 252.191 119.582 251.683 119.058 251.581C119.049 251.579 119.04 251.578 119.031 251.576L114.81 250.88C112.886 248.422 111.724 246.331 111.326 244.608C111.002 243.208 111.119 241.144 111.679 238.415C111.894 237.368 111.219 236.346 110.172 236.131C110.127 236.121 110.082 236.114 110.036 236.108Z" fill="#E4E4E4"/>
<path fill-rule="evenodd" clip-rule="evenodd" d="M219.114 163.837L256.738 156.699C264.097 152.113 270.92 148.91 277.209 147.092C278.998 146.945 281.882 147.44 277.822 151.178C273.762 154.916 269.66 159.031 270.516 160.866C271.372 162.7 275.284 161.794 276.091 164.643C276.629 166.542 270.236 167.194 256.914 166.599L226.806 180.326L219.114 163.837ZM80.0246 136.164L98.465 144.447C70.6936 176.188 55.8526 192.982 53.9422 194.83C49.6437 198.989 50.5408 208.631 50.5478 213.601C43.3201 213.619 48.4029 203.916 39.2252 204.073C30.8483 204.217 22.9671 207.72 17.1465 199.208C16.4309 198.161 16.3686 195.391 19.7748 194.762C28.2611 193.194 41.103 189.557 43.5113 187.551C46.7955 184.816 58.9665 167.687 80.0246 136.164Z" fill="#F3DBC4"/>
<path fill-rule="evenodd" clip-rule="evenodd" d="M168.513 80.4072L176.989 80.8861C190.783 102.204 188.5 145.263 199.075 153.467C209.072 161.224 226.09 159.864 246.504 157.437L249.308 171.668C227.908 186.259 187.803 193.514 175.067 181.168C154.705 161.429 160.999 109.123 168.513 80.4072Z" fill="#DB2721"/>
<path fill-rule="evenodd" clip-rule="evenodd" d="M109.374 174.697C142.068 182.225 166.118 187.762 181.522 191.309C184.819 192.068 185.294 187.165 185.37 184.653C186.253 155.662 171.664 120.833 180.75 81.3692L160.691 73.314C137.103 97.0349 123.302 129.749 109.374 174.697Z" fill="#323337"/>
<path fill-rule="evenodd" clip-rule="evenodd" d="M108.641 144.967C87.8239 168.111 71.0631 184.365 58.3582 193.729L43.9173 187.285C67.5694 129.113 106.046 91.019 159.348 73.002L163.105 73.8668L167.588 74.8993C171.607 142.887 166.987 186.507 153.728 205.759L88.7834 190.805C93.3796 175.542 100.448 159.91 108.641 144.967Z" fill="#FF4133"/>
</svg>
