<svg xmlns="http://www.w3.org/2000/svg" width="132" height="130" viewBox="0 0 132 130" fill="none">
    <g clip-path="url(#clip0_468_10)">
        <path d="M19.2293 80.6386L19.2183 80.6169L19.1963 80.6273L17.7173 81.3224L17.6945 81.3331L17.7054 81.3558L18.5602 83.1356L16.8665 84.0025L16.8436 84.0142L16.856 84.0368C17.5682 85.333 18.3296 86.5988 19.137 87.8309L19.1499 87.8507L19.1704 87.8389L20.7866 86.908L22.9004 89.7451L21.346 90.9252L21.3261 90.9403L21.3412 90.9602C22.2836 92.2077 23.2752 93.4154 24.3159 94.5805L24.3318 94.5983L24.3503 94.5833L25.6894 93.4937L28.2241 95.9517L26.9431 97.2996L26.9262 97.3174L26.9437 97.3346C27.9844 98.3564 29.065 99.3415 30.1794 100.284L30.1959 100.298L30.2121 100.283L31.5611 99.0788L34.2141 101.41L33.4203 102.795L33.4092 102.814L33.4273 102.828C34.6062 103.688 35.8219 104.502 37.0651 105.271L37.0848 105.283L37.0984 105.264L38.1502 103.831L41.3793 105.611L40.67 107.298L40.6611 107.319L40.6815 107.329C41.9156 107.973 43.1773 108.574 44.4605 109.129L44.4815 109.138L44.4924 109.118L45.3227 107.598L48.7548 108.926L48.2974 110.602L48.2912 110.625L48.3133 110.632C49.6487 111.099 51.0056 111.517 52.3809 111.886L52.4033 111.892L52.4109 111.87L52.999 110.196L56.6009 110.934L56.4099 112.78L56.4076 112.803L56.4301 112.807C57.8607 113.082 59.3097 113.301 60.7771 113.466L60.7995 113.468L60.8043 113.446L61.1894 111.666L64.855 111.94L64.8944 113.753L64.8949 113.776L64.9184 113.777C65.6735 113.807 66.4318 113.826 67.1932 113.826C67.9331 113.826 68.6668 113.807 69.3973 113.78L69.4209 113.779L69.4214 113.756L69.4547 112.141L73.1202 111.867L73.4624 113.458L73.4671 113.481L73.4895 113.478C74.9631 113.316 76.4213 113.097 77.858 112.825L77.8806 112.821L77.8782 112.798L77.7057 111.135L81.3075 110.397L81.8373 111.904L81.845 111.925L81.8673 111.92C83.2488 111.554 84.6118 111.136 85.9503 110.672L85.9723 110.664L85.9662 110.642L85.5548 109.127L88.987 107.799L89.7436 109.185L89.7545 109.205L89.7753 109.196C91.0678 108.644 92.3326 108.043 93.5729 107.399L93.5933 107.389L93.5844 107.368L92.9303 105.815L96.1594 104.035L97.1345 105.362L97.1481 105.38L97.1677 105.368C98.4202 104.6 99.639 103.785 100.827 102.928L100.845 102.915L100.834 102.896L100.099 101.612L102.752 99.28L104.021 100.415L104.037 100.429L104.053 100.415C105.177 99.4757 106.261 98.4936 107.308 97.4719L107.325 97.4546L107.308 97.4368L106.089 96.156L108.623 93.698L109.901 94.7387L109.919 94.7538L109.935 94.7361C110.979 93.574 111.974 92.3693 112.919 91.128L112.934 91.1081L112.915 91.0929L111.409 89.9494L113.523 87.1122L115.099 88.0188L115.12 88.0305L115.133 88.0109C115.946 86.7817 116.711 85.519 117.426 84.2259L117.438 84.2033L117.415 84.1915L115.753 83.3398L116.607 81.5601L116.618 81.5373L116.595 81.5266L114.883 80.7231C114.807 80.6612 114.743 80.6368 114.686 80.633C114.631 80.6293 114.584 80.6448 114.545 80.658L114.539 80.6597L114.53 80.663L114.525 80.6722C114.514 80.6937 114.506 80.7115 114.5 80.7238L114.493 80.7382L114.491 80.742L114.491 80.7422C114.491 80.7424 114.491 80.7425 114.491 80.7427C105.648 98.1056 87.6106 110.05 66.8771 110.05C46.1036 110.05 28.0412 98.0597 19.2293 80.6386Z" fill="black" stroke="black" stroke-width="0.05"/>
        <path d="M115.565 78.5702C115.567 78.5695 115.569 78.5688 115.571 78.5682C115.534 78.6541 115.51 78.724 115.496 78.7813C115.48 78.8473 115.477 78.8984 115.486 78.9392C115.506 79.024 115.574 79.0532 115.639 79.0786C115.639 79.0787 115.639 79.0788 115.64 79.0788L119.173 80.7215L119.196 80.732L119.206 80.7094C122.589 73.4595 124.481 65.3953 124.481 56.9011C124.481 25.5502 98.7423 -0.0206055 67.1869 -0.0206055C35.6315 -0.0206055 9.89639 25.5502 9.89639 56.9011C9.89639 65.3191 11.7537 73.3162 15.0784 80.5142L15.0889 80.5369L15.1117 80.5263L18.4042 78.9959L18.4271 78.9853L18.4163 78.9625C18.4019 78.9323 18.3896 78.9053 18.3798 78.884C18.3716 78.866 18.3652 78.852 18.361 78.8435C15.2418 72.0606 13.4967 64.5219 13.4967 56.5871C13.4967 27.1388 37.4756 3.12376 66.877 3.12376C96.2784 3.12376 120.257 27.1419 120.257 56.5871C120.257 64.4032 118.564 71.8354 115.534 78.5361L115.51 78.5881L115.565 78.5702Z" fill="black" stroke="black" stroke-width="0.05"/>
        <path fill-rule="evenodd" clip-rule="evenodd" d="M18.394 78.9731C18.5782 79.3634 19.1428 80.4975 19.1336 80.5097C19.1581 80.5554 19.1827 80.6042 19.2041 80.6499" fill="black"/>
        <path fill-rule="evenodd" clip-rule="evenodd" d="M52.4058 33.71L52.3567 37.9628C54.3267 37.8256 55.3209 38.7829 56.0973 41.2675L55.9899 66.3365C55.2074 68.1413 54.0199 68.879 51.9087 69.1565V74.7751L61.9705 74.7842L62.0748 69.1046C59.8685 68.9492 58.6043 67.8821 58.4355 66.3121L58.5276 40.8895C59.8931 36.9811 65.1956 36.2342 65.1833 43.7461L66.0701 43.743L65.9934 33.71H52.4058Z" fill="black"/>
        <path fill-rule="evenodd" clip-rule="evenodd" d="M68.6533 33.7101L68.6595 43.7553L69.399 43.737C69.6138 36.588 73.026 36.9111 74.5173 40.6335L74.4468 66.2177C74.0509 68.1719 72.5166 68.9859 70.7154 69.1078L70.743 74.8331L80.7312 74.7813L80.7036 68.806C78.9698 69.2115 77.767 68.0774 76.963 66.3153L77.0152 40.6366C78.1628 35.7405 82.9252 37.6367 82.1734 43.7431H82.8792L82.8638 33.707L68.6533 33.7101Z" fill="black"/>
        <path fill-rule="evenodd" clip-rule="evenodd" d="M85.2268 33.71L85.2053 38.036C86.6598 38.0299 88.0959 38.7433 88.0621 40.3865L88.1388 54.4956C88.4641 58.7118 93.0424 60.1234 95.8992 58.0686L95.8839 62.7421C95.0922 65.4432 93.8924 67.373 91.2258 69.2601L84.5854 69.2479L84.6345 74.8056L100.115 74.7568V69.2906L95.0922 69.3394C96.2767 68.3638 97.7833 66.0682 98.2927 63.8762L98.6487 40.2462C98.8942 38.5817 99.8638 38.1091 101.699 38.0329L101.726 33.7252H94.5491L94.5215 38.0085C95.9667 38.7189 95.9422 39.164 95.9667 40.9108L95.8685 53.8676C95.2702 57.6814 90.9036 56.7302 90.4986 54.3553L90.5968 41.0206C90.5599 39.8408 90.9588 38.5634 92.3274 37.9933L92.3366 33.7313L85.2268 33.71Z" fill="black"/>
        <path fill-rule="evenodd" clip-rule="evenodd" d="M32.7636 33.7437H50.5889L50.4631 37.9752C48.6066 37.7557 47.3055 38.6093 47.3914 41.1427L47.3086 67.0927C47.6461 68.4402 48.6311 69.1139 50.0641 69.1078L50.0918 74.7753H30.8335L30.6616 69.0835C32.4076 69.4981 34.3684 68.6231 35.2583 65.5806L35.4578 44.4169C36.0562 41.5268 37.4278 39.0727 40.254 37.9874L32.7728 37.9904L32.7636 33.7437ZM38.5294 43.0298L38.4466 65.8306C39.5911 70.0011 44.1111 70.2419 45.0563 65.8306L45.0286 42.3987C43.5527 39.1428 39.7047 39.283 38.5294 43.0298Z" fill="black"/>
        <path fill-rule="evenodd" clip-rule="evenodd" d="M19.6428 33.9849H30.2048V35.1129H19.6428V33.9849Z" fill="black"/>
        <path fill-rule="evenodd" clip-rule="evenodd" d="M104.375 33.8169H114.151V34.9449H104.375V33.8169Z" fill="black"/>
        <path fill-rule="evenodd" clip-rule="evenodd" d="M19.4465 76.6934H114.317V77.7878H19.4465V76.6934Z" fill="black"/>
        <path d="M35.3047 122.508C35.8417 122.471 36.0842 121.62 35.676 121.23C34.5621 120.23 33.0187 119.578 29.6125 119.813C31.245 121.386 33.0555 122.639 35.3047 122.508Z" fill="black"/>
        <path fill-rule="evenodd" clip-rule="evenodd" d="M35.3626 123.797L27.0315 122.407Z" fill="black"/>
        <path d="M27.0661 122.25L27.0137 122.56L35.3448 123.952L35.3972 123.642L27.0661 122.25Z" fill="black"/>
        <path d="M13.3246 115.625L13.25 115.924L28.5409 119.69L28.6154 119.391L13.3246 115.625Z" fill="black"/>
        <path d="M9.50291 109.351L9.42358 109.509L23.8754 116.658L23.9548 116.5L9.50291 109.351Z" fill="black"/>
        <path d="M6.08589 103.281L5.98486 103.43L19.3647 112.368L19.4657 112.219L6.08589 103.281Z" fill="black"/>
        <path d="M5.62753 97.8279L5.52832 97.936L16.528 107.896L16.6272 107.788L5.62753 97.8279Z" fill="black"/>
        <path d="M5.50794 93.2518L5.4082 93.3467L14.7099 102.998L14.8096 102.903L5.50794 93.2518Z" fill="black"/>
        <path d="M7.66785 89.3438L7.62207 89.3745L13.1342 97.4853L13.18 97.4545L7.66785 89.3438Z" fill="black"/>
        <path d="M14.9922 94.3244L14.9421 94.3477L17.7841 100.398L17.8341 100.375L14.9922 94.3244Z" fill="black"/>
        <path d="M17.4383 95.7452L17.3875 95.7666L19.6108 100.969L19.6616 100.948L17.4383 95.7452Z" fill="black"/>
        <path d="M20.5115 97.1732L20.4592 97.1909L22.8938 104.264L22.9461 104.247L20.5115 97.1732Z" fill="black"/>
        <path d="M23.0608 99.4318L23.0085 99.4497L26.2244 108.703L26.2766 108.685L23.0608 99.4318Z" fill="black"/>
        <path d="M24.9491 99.615L24.8979 99.6357L30.0268 112.097L30.078 112.076L24.9491 99.615Z" fill="black"/>
        <path d="M26.2609 99.3829L26.2117 99.4077L34.3072 115.254L34.3564 115.229L26.2609 99.3829Z" fill="black"/>
        <path d="M38.1979 118.711C34.4635 113.034 31.217 107.093 28.2681 100.547L28.3172 100.526C31.263 107.068 34.5095 113.007 38.244 118.684L38.1979 118.711Z" fill="black"/>
        <path d="M45.655 120.005C41.5431 116.898 38.0296 113.127 34.6021 108.142L34.6481 108.112C38.0726 113.093 41.583 116.858 45.6888 119.962L45.655 120.005Z" fill="black"/>
        <path fill-rule="evenodd" clip-rule="evenodd" d="M22.085 111.99C22.6219 112.075 23.0638 111.328 22.757 110.868C21.9008 109.682 20.5415 108.725 17.1384 108.194C18.3628 110.036 19.8418 111.615 22.085 111.99Z" fill="black"/>
        <path d="M22.1647 112C22.137 112 22.1094 111.997 22.0818 111.994C21.0354 111.82 20.0995 111.378 19.225 110.646C18.5131 110.049 17.8472 109.271 17.1322 108.198L17.1292 108.192H17.1353C18.7371 108.442 19.9706 108.799 20.9004 109.28C21.6798 109.686 22.269 110.189 22.7538 110.866C22.9011 111.088 22.8858 111.402 22.717 111.664C22.582 111.875 22.3764 112 22.1647 112ZM22.0849 111.987C22.3212 112.024 22.5605 111.899 22.717 111.658C22.8858 111.399 22.9011 111.088 22.7538 110.869C21.9959 109.817 20.793 108.768 17.1445 108.198C18.1786 109.753 19.673 111.585 22.0849 111.987Z" fill="black"/>
        <path fill-rule="evenodd" clip-rule="evenodd" d="M19.2439 108.112C19.7287 108.292 20.2995 107.673 20.1092 107.186C19.5538 105.911 18.4767 104.762 15.3928 103.631C16.16 105.585 17.2186 107.344 19.2439 108.112Z" fill="black"/>
        <path d="M19.4219 108.146C19.3636 108.146 19.3022 108.137 19.247 108.115L19.2439 108.112C18.2988 107.753 17.5132 107.164 16.8443 106.314C16.2981 105.622 15.8378 104.768 15.3898 103.625L15.3867 103.619L15.3929 103.622C16.8443 104.155 17.9275 104.719 18.7008 105.347C19.3482 105.872 19.7962 106.454 20.1123 107.179C20.2044 107.414 20.1276 107.704 19.9129 107.917C19.7686 108.07 19.5937 108.146 19.4219 108.146ZM19.2439 108.109C19.4587 108.189 19.7134 108.115 19.9098 107.917C20.1215 107.704 20.1982 107.417 20.1062 107.186C19.6152 106.058 18.7038 104.847 15.399 103.634C16.0465 105.283 17.0683 107.28 19.2439 108.109Z" fill="black"/>
        <path fill-rule="evenodd" clip-rule="evenodd" d="M17.8078 104.075C18.3356 104.335 19.0321 103.664 18.8634 103.069C18.3632 101.518 17.2647 100.06 13.9199 98.4263C14.5919 100.801 15.6138 102.972 17.8078 104.075Z" fill="black"/>
        <path d="M18.0596 104.138C17.9736 104.138 17.8877 104.119 17.8079 104.08C17.2801 103.814 16.7953 103.473 16.3688 103.064C15.9729 102.686 15.6108 102.238 15.2917 101.729C14.7455 100.86 14.3098 99.8116 13.9201 98.4275L13.917 98.4214L13.9231 98.4244C15.5004 99.1927 16.6572 99.964 17.4612 100.778C18.1363 101.458 18.5812 102.186 18.8666 103.071C18.9617 103.412 18.7745 103.753 18.5444 103.946C18.391 104.071 18.2191 104.138 18.0596 104.138ZM17.811 104.074C18.035 104.183 18.3081 104.131 18.5413 103.939C18.7684 103.75 18.9556 103.409 18.8605 103.074C18.4186 101.702 17.5134 100.19 13.9262 98.4366C14.4939 100.44 15.4482 102.888 17.811 104.074Z" fill="black"/>
        <path fill-rule="evenodd" clip-rule="evenodd" d="M21.1332 107.901C21.4769 108.303 22.2962 107.998 22.3699 107.446C22.5172 105.983 22.1367 104.383 19.958 101.837C19.6542 104.041 19.7125 106.203 21.1332 107.901Z" fill="black"/>
        <path d="M21.5635 108.091C21.3886 108.091 21.2352 108.027 21.1308 107.905C20.468 107.112 20.066 106.182 19.8973 105.061C19.7592 104.149 19.7807 103.125 19.9556 101.838V101.832L19.9617 101.838C20.9866 103.039 21.6678 104.088 22.0391 105.051C22.3521 105.856 22.4564 106.618 22.3736 107.451C22.3306 107.768 22.0483 107.984 21.7906 108.06C21.7108 108.079 21.6341 108.091 21.5635 108.091ZM21.137 107.902C21.2812 108.073 21.5267 108.127 21.7906 108.051C22.0483 107.978 22.3245 107.762 22.3675 107.448C22.4963 106.152 22.2969 104.576 19.9617 101.844C19.707 103.707 19.6088 106.073 21.137 107.902Z" fill="black"/>
        <path fill-rule="evenodd" clip-rule="evenodd" d="M24.3987 111.715C24.7761 112.142 25.7059 111.828 25.8041 111.249C26.0066 109.712 25.6169 108.026 23.2295 105.325C22.8337 107.645 22.8429 109.913 24.3987 111.715Z" fill="black"/>
        <path d="M24.89 111.917C24.6875 111.917 24.5095 111.847 24.396 111.719C24.0216 111.286 23.7209 110.804 23.5 110.286C23.2975 109.807 23.1532 109.28 23.0765 108.716C22.9446 107.756 22.9937 106.679 23.2238 105.329V105.323L23.2269 105.329C24.353 106.6 25.0926 107.713 25.4853 108.728C25.8167 109.576 25.9149 110.38 25.8014 111.255C25.7769 111.402 25.6971 111.539 25.5743 111.652C25.4608 111.755 25.3104 111.838 25.1509 111.883C25.068 111.905 24.976 111.917 24.89 111.917ZM24.4021 111.716C24.5648 111.899 24.8532 111.96 25.157 111.874C25.5007 111.777 25.7554 111.533 25.8045 111.252C25.9825 109.893 25.7953 108.234 23.2361 105.338C22.8985 107.289 22.7298 109.78 24.4021 111.716Z" fill="black"/>
        <path fill-rule="evenodd" clip-rule="evenodd" d="M26.1329 115.685C26.6914 115.633 26.9062 114.651 26.4613 114.206C25.2492 113.078 23.6014 112.355 20.051 112.688C21.8308 114.465 23.7824 115.874 26.1329 115.685Z" fill="black"/>
        <path d="M25.7122 115.704C25.2857 115.704 24.8622 115.652 24.4418 115.548C23.9263 115.42 23.3985 115.213 22.8769 114.926C21.987 114.439 21.0879 113.728 20.0476 112.689L20.0415 112.683H20.0476C21.72 112.524 23.0548 112.594 24.1319 112.893C25.031 113.143 25.7705 113.557 26.4609 114.201C26.7371 114.475 26.7463 114.923 26.6358 115.225C26.5376 115.496 26.3535 115.664 26.1326 115.685H26.1295C25.9914 115.701 25.8503 115.704 25.7122 115.704ZM20.0568 112.692C21.4776 114.109 23.3832 115.701 25.7153 115.701C25.8534 115.701 25.9914 115.695 26.1326 115.682H26.1357C26.3535 115.661 26.5346 115.496 26.6328 115.228C26.7402 114.929 26.734 114.484 26.4579 114.21C25.5496 113.365 24.3252 112.609 21.674 112.609C21.1861 112.609 20.6491 112.634 20.0568 112.692Z" fill="black"/>
        <path fill-rule="evenodd" clip-rule="evenodd" d="M30.4967 118.844C31.0368 118.735 31.1657 117.838 30.6962 117.497C29.4258 116.634 27.7688 116.18 24.3442 116.881C26.2191 118.259 28.229 119.283 30.4967 118.844Z" fill="black"/>
        <path d="M29.4283 118.951C28.7225 118.951 28.0106 118.816 27.2711 118.545C26.3659 118.213 25.4361 117.685 24.3406 116.884L24.3345 116.881H24.3406C25.9547 116.551 27.2557 116.46 28.3236 116.6C29.2166 116.719 29.9714 117.003 30.6925 117.493C30.9595 117.688 31.0209 118.051 30.9595 118.323C30.8981 118.603 30.7232 118.801 30.49 118.847C30.1402 118.917 29.7873 118.951 29.4283 118.951ZM24.3529 116.884C25.9332 118.042 28.0597 119.313 30.4961 118.841C30.7263 118.795 30.8981 118.6 30.9595 118.323C31.0178 118.054 30.9595 117.695 30.6956 117.499C29.5694 116.737 28.0229 116.134 24.3529 116.884Z" fill="black"/>
        <path fill-rule="evenodd" clip-rule="evenodd" d="M28.45 115.776C28.855 116.157 29.702 115.764 29.7327 115.187C29.7511 113.666 29.1957 112.06 26.6273 109.645C26.5076 111.947 26.7715 114.163 28.45 115.776Z" fill="black"/>
        <path d="M28.8608 115.932C28.7012 115.932 28.5539 115.88 28.4496 115.779C27.6671 115.026 27.1455 114.109 26.8632 112.972C26.63 112.045 26.5563 110.99 26.6238 109.649V109.643L26.63 109.649C27.839 110.786 28.6675 111.801 29.1554 112.755C29.5635 113.554 29.7507 114.328 29.7384 115.194C29.7323 115.337 29.6709 115.481 29.5666 115.603C29.4684 115.715 29.3364 115.81 29.1891 115.868C29.0756 115.908 28.9651 115.932 28.8608 115.932ZM28.4527 115.776C28.6245 115.938 28.9068 115.972 29.183 115.862C29.4991 115.734 29.7139 115.472 29.7292 115.194C29.7476 113.85 29.3825 112.246 26.63 109.661C26.5287 111.597 26.6484 114.042 28.4527 115.776Z" fill="black"/>
        <path fill-rule="evenodd" clip-rule="evenodd" d="M32.7423 118.838C33.175 119.155 33.9483 118.698 33.9115 118.155C33.7611 116.722 33.0492 115.268 30.3059 113.262C30.4501 115.436 30.9503 117.494 32.7423 118.838Z" fill="black"/>
        <path d="M33.0799 118.944C32.9541 118.944 32.8375 118.911 32.7423 118.84C31.9046 118.212 31.3032 117.402 30.9043 116.362C30.579 115.514 30.3888 114.53 30.3059 113.261V113.255L30.312 113.258C31.6039 114.204 32.5122 115.075 33.086 115.92C33.5678 116.627 33.8317 117.337 33.9176 118.151C33.936 118.411 33.7642 118.679 33.4788 118.834C33.3438 118.908 33.2088 118.944 33.0799 118.944ZM32.7454 118.834C32.9357 118.975 33.2149 118.972 33.4757 118.828C33.758 118.676 33.9268 118.411 33.9084 118.151C33.7765 116.886 33.2487 115.417 30.312 113.265C30.4317 115.103 30.8184 117.389 32.7454 118.834Z" fill="black"/>
        <path fill-rule="evenodd" clip-rule="evenodd" d="M35.3197 122.695C35.8567 122.658 36.3477 121.951 35.9978 121.378C35.424 120.234 32.9907 119.201 29.1243 119.631C30.7475 121.375 33.0612 123.015 35.3197 122.695Z" fill="black"/>
        <path d="M34.7398 122.737C33.8683 122.737 32.9416 122.469 31.9811 121.938C31.0207 121.408 30.0326 120.609 29.1212 119.633L29.1182 119.627H29.1243C30.901 119.429 32.5151 119.527 33.7977 119.911C34.3623 120.078 34.8441 120.298 35.2277 120.56C35.5928 120.81 35.8537 121.085 36.0009 121.377C36.1513 121.627 36.1574 121.926 36.0132 122.2C35.8659 122.484 35.5928 122.679 35.3197 122.697C35.1295 122.725 34.9362 122.737 34.7398 122.737ZM29.1304 119.633C30.0387 120.606 32.3003 122.731 34.7459 122.731C34.9362 122.731 35.1264 122.719 35.3197 122.691C35.5928 122.673 35.8629 122.478 36.0102 122.197C36.1513 121.926 36.1482 121.627 35.9979 121.38C35.5161 120.417 33.7456 119.533 30.8795 119.533C30.3333 119.533 29.7534 119.566 29.1304 119.633Z" fill="black"/>
        <path fill-rule="evenodd" clip-rule="evenodd" d="M36.6729 121.682C37.0319 121.987 37.707 121.603 37.6916 121.109C37.6088 119.804 37.0472 118.456 34.7734 116.533C34.8256 118.511 35.1877 120.395 36.6729 121.682Z" fill="black"/>
        <path d="M36.9829 121.794C36.8663 121.794 36.762 121.757 36.6761 121.687L36.6699 121.681C35.9765 121.081 35.4885 120.325 35.1817 119.364C34.9301 118.584 34.8012 117.681 34.7705 116.529V116.523L34.7766 116.529C35.8476 117.434 36.5932 118.261 37.0597 119.05C37.4463 119.712 37.6488 120.364 37.6979 121.108C37.7071 121.392 37.4923 121.62 37.2775 121.724C37.1763 121.77 37.0781 121.794 36.9829 121.794ZM36.673 121.678C36.8264 121.809 37.0505 121.825 37.2714 121.718C37.4862 121.617 37.6979 121.389 37.6887 121.108C37.6151 119.956 37.2131 118.602 34.7766 116.538C34.8227 118.209 35.0774 120.297 36.673 121.678Z" fill="black"/>
        <path fill-rule="evenodd" clip-rule="evenodd" d="M67.0001 129.996C59.9792 129.319 53.0166 128.983 45.6183 126.13C44.5013 125.606 43.145 125.456 41.5586 125.685C39.8402 125.859 37.8395 124.84 35.8296 123.785C37.1644 123.151 38.6834 122.661 42.4086 124.676C43.0407 124.996 43.6483 124.246 42.5436 123.932C39.6929 123.093 38.9718 121.447 38.5514 119.685C42.071 120.578 43.323 123.377 44.7315 124.407C51.8782 128.34 61.8449 128.767 67.0584 129.227C67.5064 129.252 67.4603 130.023 67.0001 129.996Z" fill="black"/>
        <path d="M67.0245 129.998C67.0153 129.998 67.0092 129.998 67 129.998C66.1653 129.919 65.3153 129.839 64.496 129.766C61.4582 129.492 58.316 129.205 55.1829 128.681C53.4952 128.397 51.9487 128.071 50.4482 127.681C48.7635 127.242 47.1832 126.736 45.6182 126.129C44.5043 125.608 43.1388 125.459 41.5585 125.684C40.7822 125.763 39.88 125.602 38.7999 125.196C37.8548 124.84 36.8943 124.346 35.8264 123.785L35.8203 123.782L35.8264 123.779C36.4708 123.474 37.1858 123.178 38.2199 123.23C39.3492 123.285 40.7208 123.757 42.4085 124.669C42.6693 124.8 42.9026 124.742 43.0222 124.654C43.1204 124.581 43.1665 124.477 43.148 124.373C43.1296 124.267 43.0222 124.068 42.5435 123.931C41.2363 123.547 40.2851 122.965 39.6345 122.154C39.0116 121.373 38.7354 120.468 38.5483 119.681V119.675H38.5544C39.6468 119.953 40.6165 120.434 41.5156 121.151C42.295 121.773 42.9026 122.468 43.4365 123.084C43.906 123.623 44.308 124.087 44.7345 124.398C51.1662 127.937 60.0558 128.65 65.3675 129.077C65.972 129.126 66.5428 129.172 67.0614 129.218C67.1841 129.224 67.2792 129.288 67.3345 129.394C67.405 129.532 67.3928 129.718 67.3068 129.846C67.2363 129.946 67.1381 129.998 67.0245 129.998ZM67 129.992C67.1227 129.998 67.2271 129.949 67.2946 129.849C67.3774 129.724 67.3897 129.541 67.3222 129.403C67.27 129.297 67.1749 129.236 67.0552 129.23C66.5366 129.184 65.9659 129.138 65.3614 129.089C62.5598 128.864 59.0708 128.583 55.4008 127.913C53.4063 127.547 51.5528 127.096 49.8927 126.574C47.9688 125.968 46.2289 125.239 44.7253 124.413C44.2988 124.102 43.8968 123.635 43.4273 123.099C42.3471 121.858 41.0062 120.319 38.5544 119.694C38.9349 121.291 39.5916 123.065 42.5435 123.934C43.0284 124.071 43.1327 124.273 43.1542 124.379C43.1726 124.486 43.1266 124.593 43.0284 124.666C42.9056 124.757 42.6724 124.815 42.4085 124.681C38.7692 122.712 37.2226 123.132 35.8387 123.788C37.5571 124.69 39.4842 125.702 41.1688 125.702C41.3008 125.702 41.4327 125.696 41.5616 125.684C42.3533 125.571 43.0959 125.553 43.7679 125.626C44.443 125.699 45.0659 125.87 45.6213 126.132C52.1389 128.647 58.4234 129.218 64.4991 129.766C65.3153 129.833 66.1653 129.91 67 129.992Z" fill="black"/>
        <path fill-rule="evenodd" clip-rule="evenodd" d="M66.4292 127.406C66.7637 127.123 66.509 126.452 66.0487 126.391C64.8305 126.272 63.5018 126.586 61.3845 128.376C63.2226 128.619 65.0177 128.571 66.4292 127.406Z" fill="black"/>
        <path d="M63.0016 128.499C62.5167 128.499 61.9859 128.459 61.3875 128.377H61.3813L61.3875 128.371C62.3848 127.526 63.2593 126.968 64.0571 126.663C64.7261 126.407 65.3613 126.319 66.0548 126.386C66.3156 126.419 66.4966 126.651 66.5611 126.861C66.6255 127.081 66.5795 127.285 66.4353 127.407C65.7755 127.953 65.0023 128.282 64.0694 128.422C63.7349 128.474 63.3821 128.499 63.0016 128.499ZM61.3936 128.371C62.9432 128.578 64.9133 128.657 66.4291 127.404C66.5703 127.285 66.6163 127.084 66.5519 126.864C66.4905 126.654 66.3095 126.425 66.0517 126.392C64.9746 126.288 63.6644 126.453 61.3936 128.371Z" fill="black"/>
        <path fill-rule="evenodd" clip-rule="evenodd" d="M60.9299 126.986C61.2951 126.745 61.1232 126.047 60.6752 125.931C59.4816 125.669 58.1222 125.824 55.8054 127.352C57.6005 127.815 59.3895 127.977 60.9299 126.986Z" fill="black"/>
        <path d="M58.2756 127.721C57.5576 127.721 56.7659 127.602 55.8055 127.355L55.7993 127.352L55.8055 127.349C56.8979 126.63 57.8307 126.178 58.6623 125.968C59.3558 125.791 59.9971 125.779 60.6783 125.928C60.9361 125.993 61.0865 126.242 61.1233 126.462C61.1632 126.688 61.0895 126.886 60.933 126.989C60.215 127.453 59.4079 127.691 58.4628 127.718C58.4015 127.721 58.3401 127.721 58.2756 127.721ZM55.8147 127.349C57.3275 127.739 59.2729 128.047 60.93 126.983C61.0834 126.88 61.154 126.688 61.1171 126.462C61.0803 126.246 60.93 125.999 60.6753 125.935C59.6197 125.703 58.2971 125.715 55.8147 127.349Z" fill="black"/>
        <path fill-rule="evenodd" clip-rule="evenodd" d="M55.9704 125.551C56.3938 125.27 56.1944 124.463 55.6758 124.331C54.2919 124.027 52.7207 124.206 50.0388 125.975C52.1132 126.508 54.1844 126.697 55.9704 125.551Z" fill="black"/>
        <path d="M52.8966 126.398C52.065 126.398 51.1505 126.261 50.0367 125.975L50.0305 125.972L50.0367 125.968C51.3009 125.136 52.381 124.612 53.3446 124.368C54.1485 124.164 54.8911 124.151 55.6767 124.322C55.9743 124.398 56.1492 124.685 56.1922 124.938C56.2382 125.2 56.1554 125.429 55.9743 125.548C55.1427 126.084 54.2068 126.359 53.1175 126.392C53.0408 126.398 52.9702 126.398 52.8966 126.398ZM50.0459 125.972C51.798 126.423 54.0534 126.779 55.9682 125.548C56.1492 125.429 56.229 125.203 56.183 124.944C56.14 124.694 55.9651 124.408 55.6736 124.334C54.4492 124.063 52.9211 124.078 50.0459 125.972Z" fill="black"/>
        <path fill-rule="evenodd" clip-rule="evenodd" d="M66.2144 125.877C66.7268 125.902 67.049 125.124 66.7053 124.71C65.7602 123.643 64.3763 122.859 61.1328 122.71C62.5014 124.378 64.0756 125.759 66.2144 125.877Z" fill="black"/>
        <path d="M66.2358 125.883C66.2296 125.883 66.2204 125.883 66.2143 125.883C65.217 125.825 64.2903 125.499 63.382 124.877C62.6425 124.374 61.9275 123.685 61.1297 122.716L61.1235 122.709H61.1297C62.6578 122.78 63.8515 122.993 64.7782 123.365C65.5545 123.676 66.1652 124.103 66.7022 124.709C66.8986 124.947 66.8679 125.286 66.7513 125.517C66.6408 125.746 66.4475 125.883 66.2358 125.883ZM66.2143 125.874C66.2204 125.874 66.2296 125.874 66.2358 125.874C66.4444 125.874 66.6347 125.74 66.7513 125.511C66.8679 125.283 66.8955 124.947 66.7022 124.712C65.8675 123.77 64.6156 122.874 61.1389 122.716C62.2957 124.118 63.9159 125.746 66.2143 125.874Z" fill="black"/>
        <path fill-rule="evenodd" clip-rule="evenodd" d="M60.3497 125.252C60.8314 125.337 61.2334 124.645 60.9634 124.209C60.2055 123.081 58.9964 122.164 55.9463 121.615C57.0264 123.365 58.3398 124.868 60.3497 125.252Z" fill="black"/>
        <path d="M60.4328 125.264C60.4052 125.264 60.3776 125.261 60.35 125.258C59.411 125.078 58.5763 124.652 57.8 123.95C57.1648 123.38 56.5756 122.64 55.9435 121.621L55.9404 121.615H55.9466C57.3827 121.874 58.4843 122.228 59.3158 122.694C60.0124 123.085 60.5341 123.566 60.9667 124.21C61.1232 124.46 61.0496 124.777 60.9115 124.981C60.7857 125.161 60.6108 125.264 60.4328 125.264ZM60.35 125.249C60.5525 125.286 60.7611 125.182 60.9054 124.975C61.0435 124.774 61.114 124.46 60.9606 124.213C60.2917 123.216 59.2207 122.213 55.9527 121.621C56.8641 123.094 58.1897 124.838 60.35 125.249Z" fill="black"/>
        <path fill-rule="evenodd" clip-rule="evenodd" d="M55.2102 123.703C55.6612 123.733 55.965 123.053 55.6704 122.678C54.8573 121.715 53.6483 120.989 50.7822 120.788C51.9544 122.294 53.3169 123.55 55.2102 123.703Z" fill="black"/>
        <path d="M55.2409 123.709C55.2317 123.709 55.2194 123.709 55.2102 123.709C54.3265 123.639 53.5133 123.328 52.7247 122.758C52.0833 122.295 51.4635 121.673 50.7792 120.795L50.7761 120.789H50.7823C52.1324 120.883 53.1849 121.1 53.9981 121.447C54.6793 121.74 55.2102 122.13 55.6736 122.679C55.8423 122.892 55.8086 123.191 55.7012 123.395C55.5938 123.593 55.4219 123.709 55.2409 123.709ZM55.2102 123.7C55.4035 123.712 55.5815 123.596 55.695 123.392C55.8024 123.191 55.8362 122.895 55.6674 122.685C54.9494 121.831 53.86 121.014 50.7884 120.798C51.7795 122.063 53.1788 123.535 55.2102 123.7Z" fill="black"/>
        <path fill-rule="evenodd" clip-rule="evenodd" d="M50.6967 123.475C51.1478 123.505 51.4516 122.825 51.157 122.45C50.3439 121.487 49.1348 120.761 46.2688 120.56C47.441 122.063 48.8034 123.319 50.6967 123.475Z" fill="black"/>
        <path d="M50.7272 123.478C50.718 123.478 50.7057 123.478 50.6965 123.478C49.8128 123.408 48.9996 123.097 48.211 122.527C47.5697 122.063 46.9498 121.441 46.2655 120.563L46.2625 120.557H46.2686C47.6188 120.652 48.6713 120.868 49.4844 121.216C50.1657 121.508 50.6965 121.899 51.1599 122.447C51.3286 122.661 51.2949 122.959 51.1875 123.164C51.0801 123.362 50.9083 123.478 50.7272 123.478ZM50.6965 123.469C50.8868 123.481 51.0678 123.365 51.1783 123.161C51.2857 122.959 51.3194 122.664 51.1507 122.453C50.4326 121.6 49.3433 120.783 46.2717 120.566C47.2659 121.831 48.6651 123.304 50.6965 123.469Z" fill="black"/>
        <path fill-rule="evenodd" clip-rule="evenodd" d="M99.0969 123.797L107.428 122.407Z" fill="black"/>
        <path d="M107.411 122.252L99.0798 123.644L99.1322 123.953L107.463 122.562L107.411 122.252Z" fill="black"/>
        <path d="M121.119 115.621L105.828 119.385L105.903 119.684L121.193 115.919L121.119 115.621Z" fill="black"/>
        <path d="M124.96 109.359L110.508 116.508L110.588 116.666L125.039 109.518L124.96 109.359Z" fill="black"/>
        <path d="M128.368 103.28L114.988 112.214L115.089 112.364L128.469 103.429L128.368 103.28Z" fill="black"/>
        <path d="M128.833 97.8366L117.832 107.795L117.931 107.903L128.932 97.9448L128.833 97.8366Z" fill="black"/>
        <path d="M128.956 93.2479L119.655 102.899L119.754 102.994L129.056 93.3428L128.956 93.2479Z" fill="black"/>
        <path d="M126.79 89.3453L121.276 97.4541L121.322 97.4848L126.836 89.376L126.79 89.3453Z" fill="black"/>
        <path d="M119.474 94.3211L116.634 100.372L116.684 100.395L119.524 94.3443L119.474 94.3211Z" fill="black"/>
        <path d="M117.031 95.7424L114.809 100.946L114.86 100.967L117.082 95.7638L117.031 95.7424Z" fill="black"/>
        <path d="M113.945 97.1737L111.513 104.248L111.566 104.265L113.997 97.1915L113.945 97.1737Z" fill="black"/>
        <path d="M111.407 99.4401L108.189 108.693L108.242 108.711L111.459 99.4581L111.407 99.4401Z" fill="black"/>
        <path d="M109.506 99.6073L104.381 112.07L104.432 112.091L109.557 99.6281L109.506 99.6073Z" fill="black"/>
        <path d="M108.205 99.3783L100.111 115.226L100.161 115.251L108.254 99.4032L108.205 99.3783Z" fill="black"/>
        <path d="M96.2611 118.712L96.2151 118.681C99.9465 113.008 103.193 107.069 106.142 100.523L106.191 100.545C103.242 107.093 99.9956 113.035 96.2611 118.712Z" fill="black"/>
        <path d="M88.805 120.005L88.7712 119.962C92.88 116.859 96.3874 113.094 99.8119 108.112L99.858 108.143C96.4304 113.127 92.9169 116.895 88.805 120.005Z" fill="black"/>
        <path fill-rule="evenodd" clip-rule="evenodd" d="M112.374 111.989C111.837 112.075 111.396 111.328 111.702 110.868C112.559 109.682 113.918 108.724 117.321 108.194C116.097 110.035 114.618 111.614 112.374 111.989Z" fill="black"/>
        <path d="M112.295 111.999C112.083 111.999 111.878 111.874 111.74 111.66C111.571 111.398 111.555 111.084 111.703 110.862C112.191 110.185 112.78 109.682 113.559 109.276C114.489 108.792 115.723 108.435 117.324 108.188H117.33L117.327 108.194C116.612 109.267 115.95 110.048 115.235 110.642C114.36 111.374 113.424 111.816 112.378 111.99C112.35 111.996 112.323 111.999 112.295 111.999ZM117.315 108.197C113.667 108.764 112.464 109.816 111.706 110.868C111.559 111.087 111.574 111.398 111.743 111.657C111.896 111.895 112.138 112.023 112.375 111.987C114.787 111.584 116.281 109.752 117.315 108.197Z" fill="black"/>
        <path fill-rule="evenodd" clip-rule="evenodd" d="M115.213 108.112C114.728 108.292 114.158 107.673 114.348 107.185C114.903 105.911 115.98 104.761 119.064 103.63C118.3 105.585 117.241 107.344 115.213 108.112Z" fill="black"/>
        <path d="M115.035 108.146C114.867 108.146 114.689 108.066 114.544 107.92C114.333 107.707 114.253 107.417 114.345 107.182C114.661 106.457 115.109 105.875 115.756 105.35C116.53 104.722 117.61 104.158 119.064 103.625L119.071 103.622L119.067 103.628C118.619 104.768 118.159 105.622 117.613 106.317C116.944 107.167 116.158 107.756 115.213 108.115L115.21 108.118C115.155 108.137 115.097 108.146 115.035 108.146ZM119.061 103.634C115.756 104.847 114.845 106.057 114.354 107.185C114.262 107.417 114.342 107.704 114.551 107.917C114.747 108.115 114.999 108.188 115.213 108.109H115.216C117.392 107.28 118.414 105.283 119.061 103.634Z" fill="black"/>
        <path fill-rule="evenodd" clip-rule="evenodd" d="M116.651 104.075C116.123 104.335 115.427 103.664 115.595 103.069C116.095 101.518 117.194 100.06 120.539 98.4263C119.864 100.801 118.845 102.972 116.651 104.075Z" fill="black"/>
        <path d="M116.4 104.138C116.238 104.138 116.069 104.071 115.912 103.946C115.682 103.756 115.495 103.412 115.59 103.071C115.876 102.186 116.321 101.458 116.996 100.778C117.8 99.964 118.96 99.1957 120.534 98.4244L120.54 98.4214L120.537 98.4275C120.144 99.8116 119.708 100.86 119.165 101.729C118.846 102.238 118.484 102.686 118.088 103.064C117.662 103.473 117.177 103.814 116.649 104.08C116.572 104.119 116.489 104.138 116.4 104.138ZM120.534 98.4366C116.947 100.19 116.041 101.702 115.599 103.074C115.504 103.412 115.692 103.753 115.919 103.939C116.152 104.131 116.425 104.183 116.649 104.074C119.012 102.888 119.966 100.44 120.534 98.4366Z" fill="black"/>
        <path fill-rule="evenodd" clip-rule="evenodd" d="M113.325 107.902C112.982 108.305 112.162 108 112.089 107.448C111.942 105.985 112.322 104.384 114.501 101.838C114.805 104.043 114.746 106.204 113.325 107.902Z" fill="black"/>
        <path d="M112.896 108.091C112.822 108.091 112.746 108.079 112.669 108.058C112.411 107.982 112.129 107.765 112.086 107.448C112.003 106.616 112.107 105.851 112.42 105.049C112.792 104.089 113.473 103.037 114.498 101.836L114.504 101.83V101.836C114.682 103.122 114.7 104.147 114.562 105.058C114.393 106.18 113.991 107.11 113.329 107.902C113.224 108.027 113.071 108.091 112.896 108.091ZM114.498 101.845C112.163 104.576 111.963 106.153 112.092 107.448C112.135 107.762 112.414 107.976 112.669 108.052C112.933 108.128 113.178 108.073 113.323 107.902C114.851 106.073 114.752 103.708 114.498 101.845Z" fill="black"/>
        <path fill-rule="evenodd" clip-rule="evenodd" d="M110.061 111.715C109.684 112.142 108.754 111.828 108.656 111.249C108.453 109.712 108.843 108.026 111.23 105.325C111.626 107.645 111.617 109.913 110.061 111.715Z" fill="black"/>
        <path d="M109.57 111.917C109.484 111.917 109.395 111.905 109.303 111.877C109.143 111.831 108.993 111.749 108.88 111.645C108.757 111.533 108.677 111.395 108.652 111.249C108.539 110.374 108.637 109.572 108.968 108.722C109.364 107.707 110.104 106.594 111.227 105.323L111.23 105.316V105.323C111.463 106.673 111.509 107.749 111.377 108.71C111.301 109.274 111.159 109.801 110.954 110.28C110.733 110.798 110.432 111.28 110.058 111.712C109.947 111.85 109.769 111.917 109.57 111.917ZM111.227 105.335C108.668 108.231 108.478 109.889 108.659 111.249C108.708 111.53 108.959 111.773 109.306 111.871C109.61 111.956 109.898 111.895 110.061 111.712C111.73 109.78 111.561 107.289 111.227 105.335Z" fill="black"/>
        <path fill-rule="evenodd" clip-rule="evenodd" d="M108.326 115.684C107.768 115.632 107.553 114.651 107.998 114.205C109.21 113.077 110.858 112.355 114.408 112.687C112.628 114.465 110.677 115.873 108.326 115.684Z" fill="black"/>
        <path d="M108.747 115.703C108.609 115.703 108.468 115.697 108.33 115.688H108.327C108.106 115.667 107.922 115.499 107.824 115.228C107.713 114.926 107.722 114.478 107.999 114.203C108.689 113.56 109.428 113.145 110.328 112.895C111.402 112.597 112.736 112.526 114.412 112.685H114.418L114.412 112.691C113.372 113.731 112.472 114.441 111.583 114.929C111.061 115.215 110.533 115.426 110.018 115.551C109.6 115.651 109.174 115.703 108.747 115.703ZM108.324 115.682C108.465 115.694 108.603 115.7 108.741 115.7C111.076 115.7 112.982 114.109 114.4 112.691C110.591 112.334 109.072 113.209 107.999 114.209C107.725 114.481 107.716 114.929 107.824 115.228C107.925 115.493 108.106 115.657 108.324 115.682Z" fill="black"/>
        <path fill-rule="evenodd" clip-rule="evenodd" d="M103.964 118.842C103.423 118.733 103.295 117.836 103.764 117.495C105.034 116.632 106.692 116.178 110.116 116.879C108.241 118.257 106.231 119.281 103.964 118.842Z" fill="black"/>
        <path d="M105.031 118.95C104.675 118.95 104.319 118.916 103.964 118.846C103.733 118.797 103.555 118.602 103.494 118.322C103.433 118.05 103.494 117.687 103.761 117.492C104.485 117.002 105.237 116.718 106.13 116.599C107.198 116.456 108.502 116.547 110.113 116.88H110.119L110.113 116.883C109.021 117.684 108.088 118.212 107.182 118.544C106.449 118.815 105.737 118.95 105.031 118.95ZM103.964 118.84C106.4 119.309 108.526 118.041 110.107 116.883C108.919 116.639 107.956 116.538 107.155 116.538C105.479 116.538 104.528 116.98 103.767 117.498C103.503 117.694 103.442 118.05 103.503 118.322C103.562 118.599 103.733 118.794 103.964 118.84Z" fill="black"/>
        <path fill-rule="evenodd" clip-rule="evenodd" d="M106.007 115.777C105.602 116.158 104.755 115.765 104.724 115.188C104.706 113.667 105.261 112.061 107.829 109.646C107.952 111.948 107.688 114.164 106.007 115.777Z" fill="black"/>
        <path d="M105.599 115.933C105.495 115.933 105.384 115.911 105.274 115.865C105.126 115.808 104.994 115.713 104.896 115.6C104.792 115.478 104.731 115.335 104.724 115.192C104.712 114.326 104.899 113.552 105.307 112.753C105.795 111.799 106.621 110.783 107.833 109.646L107.839 109.64V109.646C107.91 110.988 107.833 112.042 107.6 112.969C107.314 114.106 106.796 115.024 106.013 115.777C105.906 115.881 105.759 115.933 105.599 115.933ZM107.83 109.655C105.074 112.244 104.712 113.844 104.731 115.189C104.746 115.469 104.958 115.731 105.277 115.856C105.556 115.966 105.835 115.936 106.007 115.771C107.811 114.042 107.931 111.597 107.83 109.655Z" fill="black"/>
        <path fill-rule="evenodd" clip-rule="evenodd" d="M101.718 118.837C101.285 119.154 100.512 118.697 100.549 118.154C100.699 116.721 101.411 115.267 104.154 113.261C104.01 115.435 103.51 117.493 101.718 118.837Z" fill="black"/>
        <path d="M101.38 118.943C101.251 118.943 101.113 118.907 100.981 118.834C100.699 118.678 100.527 118.413 100.542 118.151C100.628 117.337 100.892 116.626 101.374 115.916C101.951 115.068 102.856 114.2 104.148 113.255L104.154 113.251V113.258C104.071 114.526 103.881 115.511 103.556 116.358C103.157 117.398 102.555 118.209 101.718 118.837C101.623 118.907 101.506 118.943 101.38 118.943ZM104.148 113.267C101.211 115.419 100.684 116.885 100.552 118.154C100.533 118.41 100.705 118.675 100.984 118.83C101.245 118.974 101.524 118.974 101.715 118.837C103.642 117.388 104.028 115.102 104.148 113.267Z" fill="black"/>
        <path fill-rule="evenodd" clip-rule="evenodd" d="M99.1602 122.688C98.209 122.606 98.2243 121.42 98.6324 121.026C99.9243 119.917 102.131 119.203 105.386 119.615C103.788 121.319 101.455 122.99 99.1602 122.688Z" fill="black"/>
        <path d="M99.7106 122.728C99.5234 122.728 99.3393 122.715 99.1582 122.691C98.8023 122.66 98.5415 122.465 98.4249 122.142C98.2898 121.764 98.3819 121.264 98.6274 121.026C99.3239 120.429 100.211 119.999 101.269 119.749C102.466 119.465 103.85 119.42 105.384 119.615H105.39L105.387 119.621C104.755 120.295 103.749 121.237 102.534 121.907C101.552 122.45 100.607 122.728 99.7106 122.728ZM103.62 119.505C101.536 119.505 99.8026 120.029 98.6335 121.029C98.388 121.264 98.299 121.761 98.4341 122.139C98.5476 122.459 98.8054 122.654 99.1613 122.685C99.3454 122.709 99.5265 122.721 99.7075 122.721C102.184 122.721 104.467 120.593 105.381 119.621C104.771 119.542 104.185 119.505 103.62 119.505Z" fill="black"/>
        <path fill-rule="evenodd" clip-rule="evenodd" d="M97.7873 121.682C97.4283 121.987 96.7532 121.603 96.7686 121.109C96.8514 119.804 97.413 118.456 99.6868 116.533C99.6346 118.511 99.2725 120.395 97.7873 121.682Z" fill="black"/>
        <path d="M97.4768 121.794C97.3817 121.794 97.2835 121.77 97.1853 121.724C96.9705 121.62 96.7557 121.392 96.7649 121.108C96.811 120.364 97.0135 119.712 97.4032 119.05C97.8665 118.261 98.6122 117.434 99.6862 116.529L99.6923 116.523V116.529C99.6617 117.681 99.5328 118.584 99.2812 119.364C98.9743 120.322 98.4864 121.081 97.7929 121.681L97.7868 121.687C97.6978 121.757 97.5904 121.794 97.4768 121.794ZM99.6801 116.541C97.2436 118.605 96.8417 119.956 96.768 121.111C96.7588 121.389 96.9705 121.617 97.1853 121.718C97.4063 121.825 97.6303 121.809 97.7837 121.678L97.7868 121.675C99.3824 120.297 99.6371 118.209 99.6801 116.541Z" fill="black"/>
        <path fill-rule="evenodd" clip-rule="evenodd" d="M67.4598 129.995C74.4806 129.318 81.4432 128.982 88.8415 126.129C89.9585 125.605 91.3148 125.455 92.9012 125.684C94.6196 125.858 96.6203 124.839 98.6302 123.784C97.2954 123.15 95.7765 122.66 92.0512 124.675C91.4191 124.995 90.8115 124.245 91.9162 123.931C94.7669 123.092 95.488 121.446 95.9084 119.684C92.3888 120.577 91.1368 123.376 89.7283 124.406C82.5816 128.339 72.6149 128.766 67.4014 129.226C66.9534 129.251 66.9995 130.022 67.4598 129.995Z" fill="black"/>
        <path d="M67.4356 129.998C67.322 129.998 67.2238 129.946 67.1594 129.852C67.0735 129.724 67.0612 129.538 67.1318 129.401C67.187 129.294 67.2821 129.23 67.4049 129.224C67.9235 129.178 68.4942 129.132 69.0987 129.084C74.4104 128.657 83.3 127.943 89.7317 124.404C90.1552 124.093 90.5603 123.63 91.0297 123.09C91.5637 122.474 92.1712 121.779 92.9507 121.157C93.8497 120.441 94.8194 119.956 95.9118 119.682H95.918V119.688C95.7308 120.471 95.4546 121.38 94.8317 122.16C94.1812 122.971 93.2299 123.553 91.9227 123.938C91.444 124.075 91.3366 124.273 91.3182 124.38C91.2998 124.483 91.3427 124.587 91.444 124.66C91.5637 124.748 91.7969 124.806 92.0577 124.675C93.7454 123.761 95.114 123.291 96.2463 123.236C97.2804 123.185 97.9954 123.48 98.6398 123.785L98.6459 123.788L98.6398 123.791C97.5719 124.352 96.6115 124.846 95.6663 125.203C94.5862 125.611 93.684 125.77 92.9077 125.691C91.3274 125.465 89.9619 125.614 88.848 126.136C87.28 126.739 85.6997 127.248 84.0181 127.687C82.5176 128.078 80.9679 128.407 79.2833 128.687C76.1503 129.212 73.0081 129.495 69.9702 129.773C69.1478 129.846 68.3009 129.925 67.4662 130.004C67.4509 129.998 67.4448 129.998 67.4356 129.998ZM95.9057 119.688C93.4508 120.313 92.1099 121.855 91.0328 123.093C90.5633 123.633 90.1583 124.096 89.7348 124.407C88.2281 125.236 86.4913 125.962 84.5673 126.572C82.9073 127.096 81.0569 127.544 79.0593 127.91C75.3893 128.584 71.9034 128.861 69.0987 129.087C68.4942 129.135 67.9235 129.181 67.4049 129.227C67.2852 129.233 67.1901 129.294 67.1379 129.401C67.0704 129.535 67.0796 129.718 67.1655 129.846C67.233 129.946 67.3374 129.998 67.4601 129.989C68.2948 129.91 69.1447 129.831 69.9671 129.757C76.0429 129.206 82.3242 128.639 88.8449 126.123C89.4003 125.861 90.0263 125.694 90.6983 125.617C91.3734 125.544 92.116 125.562 92.9046 125.675C94.6752 125.855 96.7741 124.755 98.6275 123.779C97.2436 123.124 95.697 122.703 92.0577 124.672C91.7938 124.806 91.5606 124.745 91.4379 124.657C91.3366 124.584 91.2906 124.477 91.312 124.37C91.3335 124.264 91.4379 124.063 91.9227 123.925C94.8716 123.06 95.5252 121.285 95.9057 119.688Z" fill="black"/>
        <path fill-rule="evenodd" clip-rule="evenodd" d="M68.0301 127.407C67.6957 127.123 67.9504 126.452 68.4106 126.391C69.6289 126.273 70.9575 126.587 73.0749 128.376C71.2368 128.62 69.4417 128.571 68.0301 127.407Z" fill="black"/>
        <path d="M71.4582 128.498C71.0777 128.498 70.7248 128.474 70.3903 128.425C69.4575 128.288 68.6842 127.956 68.0244 127.41C67.8802 127.288 67.8342 127.084 67.8986 126.864C67.9631 126.651 68.141 126.422 68.4049 126.389C69.0984 126.322 69.7336 126.407 70.4026 126.666C71.2035 126.971 72.0749 127.532 73.0722 128.373L73.0784 128.379H73.0722C72.4739 128.459 71.943 128.498 71.4582 128.498ZM68.0306 127.404C69.5464 128.657 71.5165 128.581 73.0661 128.37C70.7953 126.453 69.4851 126.288 68.408 126.392C68.1502 126.425 67.9692 126.654 67.9078 126.864C67.8434 127.081 67.8894 127.285 68.0306 127.404Z" fill="black"/>
        <path fill-rule="evenodd" clip-rule="evenodd" d="M73.5296 126.986C73.1644 126.745 73.3362 126.047 73.7842 125.931C74.9779 125.669 76.3373 125.824 78.6541 127.352C76.8589 127.815 75.07 127.977 73.5296 126.986Z" fill="black"/>
        <path d="M76.1839 127.721C76.1194 127.721 76.0581 127.721 75.9967 127.718C75.0546 127.691 74.2476 127.453 73.5265 126.989C73.37 126.886 73.2994 126.688 73.3362 126.462C73.3731 126.242 73.5265 125.996 73.7812 125.928C74.4624 125.779 75.1007 125.791 75.7972 125.968C76.6288 126.178 77.5616 126.63 78.6541 127.349L78.6602 127.352L78.6541 127.355C77.6905 127.602 76.9019 127.721 76.1839 127.721ZM73.5296 126.983C75.1835 128.047 77.1321 127.739 78.6449 127.349C76.1624 125.715 74.8398 125.703 73.7842 125.935C73.5296 125.999 73.3792 126.246 73.3424 126.462C73.3056 126.688 73.3761 126.883 73.5296 126.983Z" fill="black"/>
        <path fill-rule="evenodd" clip-rule="evenodd" d="M78.4884 125.549C78.0649 125.269 78.2644 124.461 78.783 124.33C80.1669 124.025 81.738 124.205 84.4199 125.973C82.3456 126.506 80.2743 126.695 78.4884 125.549Z" fill="black"/>
        <path d="M81.5634 126.398C81.4897 126.398 81.4161 126.398 81.3455 126.395C80.2531 126.364 79.3203 126.087 78.4887 125.55C78.3076 125.432 78.2248 125.203 78.2708 124.941C78.3138 124.688 78.4887 124.401 78.7863 124.325C79.575 124.151 80.3145 124.166 81.1184 124.371C82.0789 124.615 83.1621 125.136 84.4264 125.971L84.4325 125.974L84.4264 125.977C83.3094 126.264 82.395 126.398 81.5634 126.398ZM78.4918 125.547C80.4096 126.782 82.6619 126.422 84.4141 125.971C81.5388 124.078 80.0107 124.063 78.7863 124.331C78.4917 124.404 78.3168 124.691 78.277 124.941C78.2309 125.203 78.3138 125.429 78.4918 125.547Z" fill="black"/>
        <path fill-rule="evenodd" clip-rule="evenodd" d="M68.2461 125.877C67.7337 125.902 67.4115 125.124 67.7552 124.71C68.7003 123.643 70.0842 122.859 73.3277 122.71C71.9591 124.378 70.3849 125.759 68.2461 125.877Z" fill="black"/>
        <path d="M68.2242 125.883C68.0125 125.883 67.8191 125.749 67.7025 125.517C67.5859 125.286 67.5553 124.947 67.7516 124.709C68.2886 124.103 68.8993 123.676 69.6756 123.365C70.6023 122.993 71.796 122.78 73.3241 122.709H73.3303L73.3241 122.716C72.5263 123.688 71.8114 124.374 71.0718 124.877C70.1635 125.496 69.2399 125.825 68.2395 125.883C68.2365 125.883 68.2303 125.883 68.2242 125.883ZM73.318 122.716C69.8413 122.877 68.5894 123.77 67.7547 124.712C67.5614 124.947 67.589 125.283 67.7056 125.511C67.8222 125.74 68.0125 125.874 68.2211 125.874C68.2273 125.874 68.2365 125.874 68.2426 125.874C70.544 125.746 72.1642 124.118 73.318 122.716Z" fill="black"/>
        <path fill-rule="evenodd" clip-rule="evenodd" d="M74.1089 125.252C73.6271 125.337 73.2251 124.645 73.4952 124.209C74.2531 123.081 75.4621 122.164 78.5123 121.615C77.4321 123.365 76.1188 124.868 74.1089 125.252Z" fill="black"/>
        <path d="M74.0269 125.264C73.8489 125.264 73.674 125.16 73.5482 124.977C73.4101 124.773 73.3365 124.456 73.493 124.209C73.9226 123.569 74.4473 123.087 75.1439 122.694C75.9754 122.224 77.0771 121.874 78.5131 121.615H78.5193L78.5162 121.621C77.8841 122.639 77.2949 123.38 76.6597 123.95C75.8803 124.651 75.0457 125.078 74.1098 125.258C74.0821 125.261 74.0545 125.264 74.0269 125.264ZM78.507 121.621C75.239 122.209 74.168 123.215 73.4991 124.212C73.3457 124.459 73.4163 124.773 73.5543 124.974C73.6986 125.185 73.9042 125.285 74.1098 125.249C76.27 124.837 77.5956 123.093 78.507 121.621Z" fill="black"/>
        <path fill-rule="evenodd" clip-rule="evenodd" d="M79.2495 123.703C78.7985 123.733 78.4947 123.053 78.7893 122.678C79.6024 121.715 80.8114 120.989 83.6775 120.788C82.5053 122.294 81.1429 123.55 79.2495 123.703Z" fill="black"/>
        <path d="M79.2188 123.709C79.0346 123.709 78.8659 123.593 78.7585 123.395C78.6511 123.194 78.6173 122.892 78.7861 122.679C79.2494 122.13 79.7803 121.74 80.4615 121.447C81.2747 121.1 82.3272 120.883 83.6774 120.789H83.6835L83.6805 120.795C82.9962 121.673 82.3763 122.295 81.735 122.758C80.9464 123.325 80.1332 123.636 79.2494 123.709C79.2402 123.706 79.231 123.709 79.2188 123.709ZM83.6712 120.795C80.5996 121.011 79.5103 121.831 78.7922 122.682C78.6265 122.892 78.6603 123.191 78.7646 123.389C78.8751 123.596 79.0561 123.712 79.2494 123.697C81.2808 123.535 82.6801 122.063 83.6712 120.795Z" fill="black"/>
        <path fill-rule="evenodd" clip-rule="evenodd" d="M83.7632 123.475C83.3121 123.505 83.0084 122.825 83.3029 122.45C84.1161 121.487 85.3251 120.761 88.1912 120.56C87.019 122.063 85.6565 123.319 83.7632 123.475Z" fill="black"/>
        <path d="M83.7324 123.478C83.5483 123.478 83.3795 123.362 83.2721 123.164C83.1647 122.963 83.131 122.661 83.2998 122.447C83.7631 121.899 84.294 121.508 84.9752 121.216C85.7884 120.868 86.8409 120.652 88.1911 120.557H88.1972L88.1941 120.563C87.5098 121.441 86.89 122.063 86.2486 122.527C85.46 123.094 84.6469 123.405 83.7631 123.478C83.7539 123.478 83.7447 123.478 83.7324 123.478ZM88.1849 120.566C85.1133 120.783 84.0239 121.603 83.3059 122.453C83.1402 122.664 83.174 122.963 83.2783 123.161C83.3888 123.368 83.5698 123.484 83.76 123.469C85.7945 123.307 87.1938 121.831 88.1849 120.566Z" fill="black"/>
        <path d="M30.9624 31.9968L30.7476 31.0883L66.4411 13.5952L103.844 30.9206L103.641 31.8352L30.9624 31.9968ZM66.4534 14.6561L33.0398 31.0334L101.475 30.881L66.4534 14.6561Z" fill="black"/>
        <path fill-rule="evenodd" clip-rule="evenodd" d="M88.0008 79.428C79.8108 79.1383 71.3201 78.7939 67.1929 83.7997C62.2402 78.3183 53.326 79.9645 46.3849 79.8639C43.835 85.9124 41.2819 91.7414 38.7319 97.793C47.775 100.631 56.8181 103.546 65.8611 107.286C66.5454 107.293 67.156 107.296 67.8403 107.302C75.6805 104.204 85.9142 100.756 95.5464 97.7899C92.9933 91.7445 90.5508 85.4765 88.0008 79.428ZM66.0023 104.884C58.742 100.073 50.4048 98.5429 40.3429 97.0125C42.6075 91.6561 44.8721 86.2996 47.1337 80.9431C59.9173 80.3029 64.155 81.9431 65.9992 84.2235C66.0023 91.1103 66.0023 97.9972 66.0023 104.884ZM68.1503 84.4216C70.0405 82.1047 74.3856 79.9981 87.4914 80.6505C89.8112 86.0984 92.1341 91.5432 94.454 96.9912C84.1405 98.296 75.5885 99.7715 68.1503 104.994C68.1503 97.9911 68.1503 91.4244 68.1503 84.4216Z" fill="black"/>
    </g>
    <defs>
        <clipPath id="clip0_468_10">
            <rect width="130.85" height="130" fill="black" transform="translate(0.734619 0.00390625)"/>
        </clipPath>
    </defs>
</svg>