<svg width="205" height="294" viewBox="0 0 205 294" fill="none" xmlns="http://www.w3.org/2000/svg">
<path fill-rule="evenodd" clip-rule="evenodd" d="M73.8319 13.4719C71.2929 22.8279 67.9842 43.8579 71.3605 47.1567H92.7209C92.7231 47.1188 92.7252 47.081 92.7273 47.0433C100.644 46.1672 106.802 39.4547 106.802 31.304V15.8362C106.802 7.09009 99.7119 0 90.9658 0H89.4927C81.5501 0 74.9732 5.84725 73.8319 13.4719Z" fill="#191847"/>
<path fill-rule="evenodd" clip-rule="evenodd" d="M98.5066 28.3505C101.901 24.3666 104.198 19.4843 103.814 14.0135C102.708 -1.74933 80.7655 1.7183 76.4972 9.67403C72.229 17.6298 72.7362 37.8101 78.2525 39.232C80.4524 39.7991 85.1389 38.41 89.9086 35.5351L86.9147 56.7155H104.592L98.5066 28.3505Z" fill="#F3DBC4"/>
<path fill-rule="evenodd" clip-rule="evenodd" d="M93.7279 25.6876C92.9134 34.4365 93.2397 44.4276 95.667 46.7992H117.027C118.218 26.1212 106.715 34.1287 106.715 14.6597C105.998 13.9591 105.321 13.2656 104.65 12.6675L104.674 12.0949C100.975 4.52269 96.2827 0.736572 90.5964 0.736572C82.0669 0.736572 79.3747 4.70542 77.0824 8.07503C78.7965 13.9566 85.4485 14.8287 91.3592 18.4948C92.0559 17.9287 92.9443 17.5895 93.912 17.5895C96.1493 17.5895 97.9631 19.4032 97.9631 21.6406C97.9631 23.878 96.1493 25.6917 93.912 25.6917C93.8503 25.6917 93.7889 25.6903 93.7279 25.6876Z" fill="#191847"/>
<path fill-rule="evenodd" clip-rule="evenodd" d="M133.018 190.099C115.348 195.041 100.103 197.512 87.2834 197.512C74.4633 197.512 62.5554 193.707 51.5597 186.096C68.8511 181.023 83.0914 178.486 94.2805 178.486C105.47 178.486 118.382 182.357 133.018 190.099Z" fill="#0B3BA1"/>
<path fill-rule="evenodd" clip-rule="evenodd" d="M71.987 204.636C72.1574 204.38 72.3013 204.101 72.4154 203.799C74.7772 197.553 112.609 130.17 116.377 117.85H73.7848C70.9192 127.217 58.0216 185.997 56.2065 197.725C50.4794 216.224 38.688 276.135 37.1828 280.285C35.5992 284.651 44.5092 289.2 46.8835 283.832C50.6613 275.291 59.6629 251.659 63.671 237.229C67.4285 223.701 70.4881 211.53 71.987 204.636Z" fill="#F3DBC4"/>
<path fill-rule="evenodd" clip-rule="evenodd" d="M106.834 212.863C124.129 217.234 187.394 225.137 191.736 226.376C196.202 227.651 200.117 218.446 194.597 216.452C185.813 213.279 161.61 205.948 146.936 202.956C135.133 200.55 124.362 198.586 117.131 197.436C117.744 177.124 120.544 128.378 118.709 117.85H81.0222C82.7823 127.946 97.6612 201.611 100.427 208.984C101.304 211.617 103.923 212.78 106.834 212.863Z" fill="#F3DBC4"/>
<path fill-rule="evenodd" clip-rule="evenodd" d="M194.196 214.001C196.506 213.571 198.198 213.451 199.274 213.641C200.582 213.872 202.452 214.426 204.885 215.304C204.617 216.822 202.213 230.459 197.671 256.217C193.969 256.66 192.179 255.712 192.303 253.372C192.427 251.032 192.509 249.084 192.55 247.529L187.426 227.019C187.327 226.624 187.567 226.224 187.962 226.126C187.969 226.124 187.976 226.123 187.982 226.121L191.163 225.422C192.526 223.475 193.325 221.84 193.559 220.514C193.749 219.437 193.576 217.872 193.04 215.821C192.835 215.034 193.307 214.229 194.094 214.024C194.128 214.015 194.162 214.007 194.196 214.001Z" fill="#E4E4E4"/>
<path fill-rule="evenodd" clip-rule="evenodd" d="M49.5869 283.137C50.411 285.337 50.823 286.983 50.823 288.075C50.823 289.403 50.6017 291.341 50.1592 293.889C48.6183 293.889 34.7705 293.889 8.61556 293.889C7.53599 290.32 8.15918 288.394 10.4851 288.109C12.8111 287.825 14.7433 287.568 16.2818 287.338L35.5908 278.73C35.9624 278.565 36.3979 278.731 36.5635 279.103C36.5663 279.109 36.5691 279.116 36.5717 279.122L37.8129 282.133C39.9661 283.138 41.7158 283.64 43.062 283.64C44.1558 283.64 45.6663 283.198 47.5935 282.315C48.3331 281.976 49.2075 282.3 49.5466 283.04C49.5612 283.072 49.5746 283.104 49.5869 283.137Z" fill="#E4E4E4"/>
<path fill-rule="evenodd" clip-rule="evenodd" d="M118.587 117.85C101.98 113.099 86.2666 113.099 71.447 117.85C66.2911 141.374 53.7629 150.711 51.5598 186.777C76.603 199.221 107.539 177.903 133.318 190.038C140.684 173.064 130.372 132.187 118.587 117.85Z" fill="#11519C"/>
<path fill-rule="evenodd" clip-rule="evenodd" d="M47.1404 88.6168L18.0587 84.6499C12.2411 81.4141 6.88931 79.2235 2.00316 78.0781C0.628143 78.0379 -1.55925 78.5378 1.69936 81.2544C4.95795 83.9709 8.26425 86.976 7.68367 88.4258C7.10309 89.8755 4.07265 89.3361 3.57062 91.566C3.23593 93.0526 8.15416 93.2942 18.3253 92.2907L41.9227 101.646L47.1404 88.6168ZM138.497 95.3482L122.368 95.4087C140.054 135.208 149.275 156.046 150.033 157.924C151.737 162.148 148.13 168.58 146.588 172.037C151.611 174.285 151.076 165.961 157.413 168.909C163.197 171.6 167.597 176.475 174.28 172.352C175.101 171.845 176.002 169.936 173.826 168.445C168.407 164.729 160.597 158.225 159.542 156.084C158.103 153.165 151.088 132.92 138.497 95.3482Z" fill="#F3DBC4"/>
<path fill-rule="evenodd" clip-rule="evenodd" d="M94.3178 44.1939L81.6894 45.0352C78.5793 73.1729 61.6386 90.9458 23.7095 84.9289L18.6704 121.164C54.1209 125.746 85.2112 111.553 91.5829 73.1251C93.2324 63.1774 94.5348 52.8249 94.3178 44.1939Z" fill="#AFB9C5"/>
<path fill-rule="evenodd" clip-rule="evenodd" d="M100.548 40.5228L81.4145 44.9049C81.4145 77.814 70.9314 98.8106 65.5545 123.006H117.229C117.957 131.367 118.404 139.96 118.637 148.786H157.329C148.561 102.135 130.055 66.0434 101.811 40.5111H100.558L100.548 40.5228Z" fill="#C5CFD6"/>
<path fill-rule="evenodd" clip-rule="evenodd" d="M109.076 76.0573C110.408 96.5642 109.625 112.214 106.727 123.006H117.229C115.787 106.444 113.243 90.7942 109.076 76.0573Z" fill="black" fill-opacity="0.1"/>
</svg>
