<svg width="224" height="358" viewBox="0 0 224 358" fill="none" xmlns="http://www.w3.org/2000/svg">
<path fill-rule="evenodd" clip-rule="evenodd" d="M110.688 32.8296C106.354 27.9608 103.421 21.9941 103.912 15.3081C105.324 -3.95587 133.34 0.281967 138.789 10.0048C144.239 19.7276 143.591 44.3903 136.548 46.1281C133.739 46.8211 127.756 45.1235 121.666 41.61L125.488 67.4949H102.918L110.688 32.8296Z" fill="#F3DBC4"/>
<path fill-rule="evenodd" clip-rule="evenodd" d="M122.794 17.4354C123.658 28.955 125.944 34.7148 129.651 34.7148C135.211 34.7148 139.929 31.3359 142.369 31.3359C144.148 31.3359 143.751 33.4663 142.572 35.0458C141.599 36.349 136.862 37.6051 136.862 39.6255C136.862 41.6459 140.605 40.0828 140.605 41.2811C140.605 43.2631 141.262 46.9897 137.668 46.9897C134.031 46.9897 123.603 45.721 121.816 40.554C120.662 37.2193 119.916 30.3092 119.578 19.8238C119.358 19.7987 119.133 19.7858 118.905 19.7858C115.789 19.7858 113.263 22.2039 113.263 25.1868C113.263 26.701 113.914 28.0698 114.963 29.0505C113.657 30.8145 112.194 32.6572 110.517 34.5586C104.218 30.9413 99.5438 20.3519 105.702 10.1794C107.404 5.19608 111.258 2.53429 115.809 1.29833C119.496 -0.177756 123.323 -0.344187 126.553 0.540712C132.886 1.06064 138.541 2.909 140.144 4.00669C140.144 9.74546 138.982 11.4481 129.059 11.2981C126.621 12.5305 124.747 14.6529 122.794 17.4354Z" fill="#191847"/>
<path fill-rule="evenodd" clip-rule="evenodd" d="M95.3943 142.21L129.49 256.735L154.366 341.147H172.51L146.076 142.21H95.3943Z" fill="#191847"/>
<path fill-rule="evenodd" clip-rule="evenodd" d="M86.2761 142.21C85.4875 201.238 82.7983 233.433 81.9703 238.796C81.1423 244.159 68.6221 278.276 44.4097 341.147H63.2056C94.0298 280.833 111.237 246.716 114.826 238.796C118.416 230.876 129.493 198.681 146.178 142.21H86.2761Z" fill="#2F3676"/>
<path fill-rule="evenodd" clip-rule="evenodd" d="M42.7297 357.349L43.6702 338.446H63.4194C72.7839 344.747 85.0097 349.848 100.097 353.748V357.349H64.3599L52.1341 355.549V357.349H42.7297Z" fill="#191847"/>
<path fill-rule="evenodd" clip-rule="evenodd" d="M151.821 357.349L152.761 338.446H172.51C181.875 344.747 194.101 349.848 209.188 353.748V357.349H173.451L161.225 355.549V357.349H151.821Z" fill="#191847"/>
<path fill-rule="evenodd" clip-rule="evenodd" d="M174.729 127.453L203.118 150.49C211.081 153.129 217.671 156.191 222.889 159.676C224.093 160.884 225.482 163.26 220.176 162.51C214.87 161.761 209.253 161.2 208.39 162.893C207.527 164.585 210.603 166.884 208.943 169.134C207.837 170.635 203.437 166.393 195.745 156.408L166.97 142.663L174.729 127.453ZM46.1785 117.484L62.8354 119.8C44.9557 156.931 35.3702 176.569 34.0789 178.712C31.1734 183.534 34.5904 191.932 35.9263 196.378C29.1754 198.244 31.3314 188.261 22.7954 190.751C15.0041 193.024 8.57461 198.176 0.85806 192.049C-0.090645 191.296 -0.889813 188.833 2.12561 187.398C9.63812 183.822 20.6682 177.28 22.3828 174.868C24.721 171.58 32.6529 152.452 46.1785 117.484Z" fill="#F3DBC4"/>
<path fill-rule="evenodd" clip-rule="evenodd" d="M115.797 52.489L126.119 49.222C140.119 82.6994 161 115.091 195.887 142.45L187.26 156.697C156.599 139.409 127.575 125.979 115.797 100.038C111.844 91.3318 115.475 62.8994 115.797 52.489Z" fill="#C5CFD6"/>
<path fill-rule="evenodd" clip-rule="evenodd" d="M80.3472 146.707C109.913 149.707 133.185 149.707 150.162 146.707C152.265 146.335 152.597 142.964 151.622 140.677C136.432 105.051 126.015 73.9658 126.015 49.2211C123.228 50.5661 118.35 50.7676 111.382 49.8258C92.654 75.326 84.0455 104.585 80.3472 146.707Z" fill="#323337"/>
<path fill-rule="evenodd" clip-rule="evenodd" d="M106.726 47.6887H114.531C116.348 57.919 122.08 196.453 139.774 241.77H44.0327C46.1084 200.256 62.4818 150.386 79.0683 108.655C64.4018 121.502 51.6187 143.269 40.7191 173.958L22.7856 169.551C36.1198 114.554 63.5347 74.131 105.031 48.2819C105.12 48.0832 105.21 47.8855 105.299 47.6887H105.99C106.244 47.5325 106.498 47.3769 106.754 47.2218L106.726 47.6887Z" fill="#DDE3E9"/>
</svg>
